<?xml version="1.0" encoding="utf-8"?>
<svg viewBox="-301.371 -22.923 1000 389.399" xmlns="http://www.w3.org/2000/svg">
  <path d="M 478.656 173.983 L 451.721 173.983 L 451.721 169.054 L 478.656 169.054 L 478.656 173.983 Z M 476.732 182.971 L 474.492 180.732 L 476.732 180.732 L 476.732 182.971 Z M 476.732 184.517 L 475.157 184.517 C 474.984 182.829 473.671 181.489 471.995 181.278 L 471.995 180.732 L 473.239 180.732 L 476.732 184.224 L 476.732 184.517 Z M 476.732 185.616 L 471.691 190.657 L 468.771 187.739 L 468.771 187.244 C 469.442 188.032 470.428 188.54 471.539 188.54 C 473.378 188.54 474.888 187.173 475.141 185.403 L 476.732 185.403 L 476.732 185.616 Z M 476.732 195.699 L 472.318 191.283 L 476.732 186.87 L 476.732 195.699 Z M 476.732 200.492 C 474.499 200.811 471.815 200.878 468.771 200.739 L 468.771 188.991 L 476.732 196.952 L 476.732 200.492 Z M 468.809 184.517 C 468.973 183.308 469.909 182.351 471.108 182.162 L 471.108 184.517 L 468.809 184.517 Z M 471.995 184.517 L 471.995 182.165 C 473.184 182.363 474.108 183.316 474.271 184.517 L 471.995 184.517 Z M 474.256 185.403 C 474.014 186.682 472.889 187.654 471.539 187.654 C 470.191 187.654 469.067 186.682 468.824 185.403 L 474.256 185.403 Z M 466.437 184.517 L 470.223 180.732 L 471.108 180.732 L 471.108 181.275 C 469.421 181.477 468.096 182.821 467.924 184.517 L 466.437 184.517 Z M 465.81 183.89 L 465.81 180.732 L 468.969 180.732 L 465.81 183.89 Z M 467.886 186.852 L 466.437 185.403 L 467.886 185.403 L 467.886 186.852 Z M 467.886 200.691 C 466.252 200.599 464.526 200.452 462.717 200.256 L 462.717 188.236 L 465.367 185.586 L 467.886 188.106 L 467.886 200.691 Z M 464.298 185.403 L 462.717 186.982 L 462.717 185.403 L 464.298 185.403 Z M 461.764 180.732 L 464.925 180.732 L 464.925 183.89 L 461.764 180.732 Z M 459.505 181.232 L 459.505 180.732 L 460.511 180.732 L 464.297 184.517 L 462.685 184.517 C 462.531 182.803 461.203 181.44 459.505 181.232 Z M 456.328 184.517 C 456.472 183.291 457.41 182.314 458.62 182.117 L 458.62 184.517 L 456.328 184.517 Z M 459.505 184.517 L 459.505 182.117 C 460.716 182.314 461.653 183.291 461.798 184.517 L 459.505 184.517 Z M 461.773 185.403 C 461.512 186.66 460.397 187.609 459.063 187.609 C 457.729 187.609 456.612 186.66 456.353 185.403 L 461.773 185.403 Z M 454.359 182.734 L 454.359 180.732 L 456.36 180.732 L 454.359 182.734 Z M 457.612 180.732 L 458.62 180.732 L 458.62 181.232 C 456.923 181.44 455.595 182.803 455.441 184.517 L 454.359 184.517 L 454.359 183.986 L 457.612 180.732 Z M 461.831 187.869 L 459.202 190.498 L 454.359 185.654 L 454.359 185.403 L 455.465 185.403 C 455.738 187.15 457.24 188.496 459.063 188.496 C 460.175 188.496 461.16 187.986 461.831 187.2 L 461.831 187.869 Z M 454.359 195.342 L 454.359 186.908 L 458.575 191.124 L 454.359 195.342 Z M 461.831 200.157 C 459.457 199.884 456.956 199.535 454.359 199.124 L 454.359 196.595 L 461.831 189.121 L 461.831 200.157 Z M 698.629 251.563 L 679.569 230.057 L 675.281 218.311 L 656.699 204.26 C 659.738 201.589 649.984 188.931 645.784 202.403 L 632.049 203.163 L 632.049 90.182 L 607.327 90.182 L 607.327 204.531 L 606.565 204.572 L 606.565 167.69 L 587.39 167.69 L 587.39 156.085 L 536.327 171.111 L 536.327 187.211 C 535.131 187.803 534.083 188.7 533.004 190.058 C 532.609 190.554 531.805 191.368 531.766 191.998 C 531.022 188.06 530.14 187.692 528.203 184.662 C 526.47 181.946 511.987 187.432 512.141 191.772 C 511.805 190.164 512.123 193.623 512.123 193.623 C 507.939 193.784 513.595 185.854 506.326 189.291 C 505.466 189.079 492.226 181.11 483.291 197.263 C 482.621 198.473 481.299 199.332 479.456 199.903 L 479.456 181.703 L 482.786 180.751 L 482.786 166.815 L 483.976 166.815 L 483.976 163.853 L 445.822 163.853 L 446.136 166.697 L 447.71 166.697 L 447.71 180.228 L 451.636 181.654 L 451.636 198.678 C 448.128 198.082 444.478 197.392 440.756 196.642 L 435.336 188.759 L 435.375 165.486 L 433.509 165.482 L 433.47 187.767 L 413.771 176.707 L 411.708 178.654 C 411.708 177.896 411.708 177.24 411.708 176.739 C 411.778 167.798 411.64 160.097 411.64 143.456 C 411.64 138.555 411.64 131.323 411.64 125.522 C 411.64 106.414 411.572 96.006 411.493 89.414 C 411.443 85.087 406.65 78.021 403.654 75.493 C 401.269 73.476 397.428 71.437 395.207 70.667 C 378.14 64.755 359.224 75.399 359.224 75.399 C 359.224 75.399 359.232 138.585 359.235 184.068 L 355.834 179.637 C 355.863 138.449 355.885 78.441 355.885 78.441 C 355.885 78.441 354.003 79.583 353.183 84.215 C 353.072 84.823 352.743 88.065 352.635 89.989 C 352.511 92.187 352.429 97.111 352.433 100.978 C 352.44 105.316 352.415 119.011 352.403 135.353 C 352.401 139.582 352.399 143.732 352.403 150.151 C 352.41 160.8 352.4 170.136 352.396 178.316 L 332.285 178.181 L 323.743 186.723 L 323.743 192.915 C 320.317 193.146 316.858 193.354 313.408 193.543 L 313.442 190.467 L 313.443 190.398 L 302.491 160.624 L 274.658 160.428 L 274.658 168.595 L 224.09 168.584 L 224.09 150.564 L 219.277 150.564 L 219.277 137.613 L 220.76 137.613 L 218.944 134.038 L 217.755 134.038 C 218.872 132.446 219.481 130.532 219.481 128.571 C 219.481 124.842 217.315 121.471 213.942 119.914 L 213.942 110.435 L 211.556 110.435 C 211.662 110.4 211.773 110.383 211.877 110.34 L 215.378 110.346 L 214.336 108.246 C 214.809 107.456 215.06 106.553 215.06 105.63 C 215.06 103.868 214.173 102.265 212.686 101.33 L 210.136 76.829 L 209.869 76.829 L 207.362 101.283 C 205.85 102.2 204.914 103.858 204.914 105.63 C 204.914 106.622 205.197 107.579 205.737 108.403 L 204.45 110.324 L 208.078 110.334 C 208.189 110.379 208.307 110.399 208.42 110.435 L 206.205 110.435 L 206.205 119.803 C 202.683 121.305 200.42 124.719 200.42 128.571 C 200.42 130.531 201.027 132.445 202.141 134.038 L 201.134 134.038 L 199.105 137.613 L 200.682 137.613 L 200.682 150.564 L 195.95 150.564 L 195.95 203.376 C 176.894 204.014 154.045 201.167 138.357 196.889 L 138.357 162.335 L 122.786 162.335 L 122.786 140.352 L 104.539 140.352 L 104.539 131.377 L 104.493 131.377 L 104.493 122.691 L 94.397 122.691 L 94.397 117.058 L 79.03 117.058 L 79.03 122.691 L 67.907 122.691 L 67.907 131.377 L 67.907 135.882 L 67.907 140.352 L 50.516 140.352 L 50.516 162.335 L 33.661 162.335 L 33.661 221.1 C 32.428 221.764 31.165 222.495 29.514 222.952 C 29.286 218.996 26.393 215.882 22.816 215.882 C 20.534 215.882 19.468 217.819 17.643 219.248 C 17.643 215.63 11.174 212.011 9.73 212.515 C 9.425 208.307 5.621 206.118 1.816 206.118 C -1.306 206.118 -2.751 208.054 -5.796 208.812 C -5.492 204.099 -17.753 202.478 -20.395 202.152 C -22.437 201.903 -24.795 203.45 -27.711 204.099 C -30.471 204.713 -32.732 198.7 -34.939 200.636 C -37.373 197.604 -39.431 204.015 -42.93 202.751 C -42.702 201.911 -42.322 201.489 -42.322 200.565 C -42.322 198.207 -45.529 200.224 -47.128 198.708 C -49.335 196.604 -50.291 198.708 -53.258 198.708 C -55.312 198.708 -54.686 195.781 -56.742 195.781 C -58.162 195.781 -60.452 194.244 -62.186 193.009 L -64.952 77.088 L -59.27 77.088 L -56.738 56.905 L -64.219 56.905 L -64.219 50.063 L -59.24 50.043 L -59.27 33.203 L -66.308 33.203 L -66.308 21.676 L -66.333 21.675 C -66.444 20.578 -67.515 19.683 -68.928 19.479 L -68.928 -23.923 L -70.141 -23.923 L -70.141 19.478 C -71.558 19.677 -72.634 20.57 -72.75 21.668 L -72.776 21.668 L -72.776 33.125 L -71.895 33.203 L -80.085 33.203 L -80.085 50.123 L -75.295 50.105 L -75.295 56.905 L -82.392 56.905 L -80.085 77.088 L -74.157 77.088 L -76.879 190.704 C -80.046 190.871 -80.127 191.492 -85.239 193.663 C -86.305 194.084 -86.762 195.347 -87.979 195.347 C -92.165 195.347 -92.774 188.612 -96.96 188.612 C -99.546 188.612 -100.612 196.419 -103.199 196.419 C -105.786 196.419 -106.091 192.381 -108.677 192.381 C -111.874 192.381 -109.975 199.241 -112.562 201.26 C -113.551 200.503 -117.353 195.411 -118.571 195.411 C -121.692 195.411 -136.089 202.8 -131.059 210.705 C -131.059 210.705 -135.423 210.844 -140.307 212.307 C -144.548 202.913 -159.541 210.492 -161.754 211.065 C -166.128 212.195 -165.022 209.843 -170.591 210.699 C -174.773 211.341 -178.379 206.6 -182.864 206.793 C -184.229 206.853 -186.631 207.973 -189.401 209.269 L -189.401 169.822 L -189.462 169.822 C -190.187 167.825 -198.109 166.182 -208.601 165.73 L -208.601 161.581 L -220.287 161.581 L -220.287 165.73 C -230.779 166.182 -238.701 167.825 -239.427 169.822 L -239.487 169.822 L -239.487 219.977 C -239.805 219.868 -240.139 219.786 -240.523 219.786 C -243.423 219.786 -245.002 228.808 -246.68 228.448 C -248.203 228.12 -250.539 229.199 -251.803 230.349 C -254.777 232.98 -257.287 230.248 -258.69 230.934 C -260.596 231.86 -264.966 237.766 -265.902 238.003 C -267.932 238.525 -267.676 246.484 -265.669 246.897 C -265.271 246.976 -268.989 249.7 -267.433 254.477 C -270.458 254.244 -276.523 252.585 -277.352 255.085 C -278.245 257.777 -282.107 255.941 -285.535 264.006 C -286.479 266.751 -300.299 268.676 -301.239 271.355 L -301.371 365.476 L 698.629 365.476 L 698.629 251.563" style="fill-opacity: 1; fill-rule: evenodd; stroke: rgb(255, 255, 255); stroke-opacity: 0.5;" id="path16"/>
  <path d="M 7.977 250.879 Q 7.69 251.023 7.445 251.181 Q 7.2 251.34 6.97 251.469 Q 6.74 251.599 6.51 251.656 Q 6.279 251.714 6.02 251.656 Q 5.848 251.656 5.732 251.44 Q 5.617 251.225 5.545 250.951 Q 5.473 250.678 5.445 250.404 Q 5.416 250.131 5.445 249.987 L 8.208 248.404 L 8.38 241.036 Q 8.438 240.662 8.841 240.734 Q 9.244 240.806 9.676 240.921 Q 9.733 240.921 9.863 240.964 Q 9.992 241.007 10.05 241.036 Q 9.992 241.813 9.92 242.72 Q 9.848 243.626 9.791 244.533 Q 9.733 245.439 9.719 246.303 Q 9.704 247.166 9.791 247.857 L 14.108 246.648 Q 14.223 246.619 14.295 246.807 Q 14.367 246.994 14.439 247.253 Q 14.511 247.512 14.54 247.771 Q 14.568 248.03 14.568 248.03 L 9.676 250.102 Q 9.676 250.361 9.719 251.34 Q 9.762 252.318 9.819 253.657 Q 9.877 254.995 9.935 256.535 Q 9.992 258.075 10.05 259.399 Q 10.107 260.723 10.136 261.716 Q 10.165 262.708 10.165 262.968 Q 10.107 263.831 9.661 263.831 Q 9.215 263.831 8.697 263.399 Z" transform="matrix(3.521473, 0, 0, 3.426911, -53.386276, -578.800354)" style="fill: rgb(255, 255, 255); paint-order: fill; stroke: rgb(255, 255, 255); stroke-width: 0px; white-space: pre;"/>
  <path d="M 25.448 250.591 Q 24.383 250.188 23.404 250.908 Q 22.426 251.627 21.534 252.937 Q 20.641 254.247 19.835 255.916 Q 19.03 257.585 18.339 259.082 Q 17.648 260.579 17.087 261.644 Q 16.526 262.708 16.065 262.824 Q 15.72 262.824 15.533 262.694 Q 15.346 262.565 15.346 262.047 L 15.346 241.813 Q 15.346 241.554 15.561 241.496 Q 15.777 241.439 16.036 241.468 Q 16.295 241.496 16.526 241.597 Q 16.756 241.698 16.813 241.813 L 17.188 258.017 Q 17.504 257.499 17.778 256.564 Q 18.051 255.628 18.425 254.549 Q 18.799 253.47 19.303 252.39 Q 19.807 251.311 20.555 250.447 Q 21.303 249.584 22.383 249.109 Q 23.462 248.634 24.93 248.778 Q 25.908 248.778 26.513 249.397 Q 27.117 250.016 27.146 251.023 L 27.434 262.507 Q 27.434 262.622 27.391 262.838 Q 27.348 263.054 27.16 263.212 Q 26.973 263.37 26.642 263.414 Q 26.311 263.457 25.793 263.255 Z" transform="matrix(3.521473, 0, 0, 3.426911, -53.386276, -578.800354)" style="fill: rgb(255, 255, 255); paint-order: fill; stroke: rgb(255, 255, 255); stroke-width: 0px; white-space: pre;"/>
  <path d="M 29.707 256.952 Q 29.563 256.981 29.275 257.038 Q 28.987 257.096 28.671 257.067 Q 28.354 257.038 28.109 256.895 Q 27.865 256.751 27.865 256.405 Q 27.865 256.204 27.951 256.117 Q 28.037 256.031 28.239 255.858 Q 28.872 255.34 29.318 254.52 Q 29.764 253.7 30.138 252.764 Q 30.513 251.829 30.93 250.894 Q 31.347 249.958 31.894 249.21 Q 32.441 248.461 33.247 248.001 Q 34.053 247.54 35.233 247.569 Q 35.722 247.569 36.326 247.8 Q 36.931 248.03 37.449 248.418 Q 37.967 248.807 38.312 249.354 Q 38.658 249.901 38.658 250.563 Q 38.802 250.793 38.384 251.225 Q 37.967 251.656 37.248 252.16 Q 36.528 252.664 35.621 253.196 Q 34.715 253.729 33.88 254.189 Q 33.045 254.65 32.412 254.995 Q 31.779 255.34 31.577 255.513 Q 31.434 255.801 31.347 256.175 Q 31.261 256.549 31.218 256.88 Q 31.175 257.211 31.16 257.485 Q 31.146 257.758 31.146 257.902 Q 31.146 258.449 31.103 259.111 Q 31.059 259.773 31.16 260.363 Q 31.261 260.953 31.635 261.341 Q 32.009 261.73 32.901 261.73 Q 33.851 261.73 34.686 261.255 Q 35.521 260.78 36.24 260.089 Q 36.96 259.399 37.55 258.593 Q 38.14 257.787 38.615 257.082 Q 39.09 256.376 39.464 255.916 Q 39.838 255.455 40.097 255.455 Q 40.385 255.455 40.716 255.556 Q 41.047 255.657 41.047 256.031 Q 41.047 256.549 40.629 257.269 Q 40.212 257.988 39.536 258.794 Q 38.859 259.6 37.981 260.392 Q 37.104 261.183 36.211 261.802 Q 35.319 262.421 34.456 262.809 Q 33.592 263.198 32.93 263.198 Q 31.635 263.198 30.973 262.565 Q 30.311 261.931 30.038 260.982 Q 29.764 260.032 29.75 258.952 Q 29.735 257.873 29.707 256.952 Z M 35.003 249.181 Q 34.513 249.181 33.966 249.656 Q 33.42 250.131 32.945 250.807 Q 32.47 251.484 32.168 252.189 Q 31.865 252.894 31.865 253.354 Q 32.297 253.354 33.117 253.023 Q 33.938 252.692 34.743 252.203 Q 35.549 251.714 36.154 251.167 Q 36.758 250.62 36.758 250.131 Q 36.758 249.872 36.557 249.699 Q 36.355 249.526 36.082 249.411 Q 35.808 249.296 35.521 249.239 Q 35.233 249.181 35.003 249.181 Z" transform="matrix(3.521473, 0, 0, 3.426911, -53.386276, -578.800354)" style="fill: rgb(255, 255, 255); paint-order: fill; stroke: rgb(255, 255, 255); stroke-width: 0px; white-space: pre;"/>
  <path d="M 42.485 262.047 Q 42.888 261.615 43.176 261.456 Q 43.463 261.298 43.924 261.298 Q 44.701 261.298 44.701 262.047 Q 44.701 262.219 44.6 262.435 Q 44.5 262.651 44.341 262.852 Q 44.183 263.054 43.981 263.155 Q 43.78 263.255 43.607 263.169 Q 43.406 263.313 43.19 263.241 Q 42.974 263.169 42.801 262.996 Q 42.629 262.824 42.528 262.579 Q 42.427 262.334 42.485 262.047 Z" transform="matrix(3.521473, 0, 0, 3.426911, -53.386276, -578.800354)" style="fill: rgb(255, 255, 255); paint-order: fill; stroke: rgb(255, 255, 255); stroke-width: 0px; white-space: pre;"/>
  <path d="M 48.559 262.737 Q 48.559 262.766 49.177 262.392 Q 49.796 262.018 50.645 261.399 Q 51.494 260.78 52.387 260.046 Q 53.279 259.312 53.854 258.65 Q 54.43 257.988 54.473 257.513 Q 54.516 257.038 53.682 256.895 Q 52.646 256.751 51.941 256.923 Q 51.235 257.096 50.66 257.326 Q 50.084 257.557 49.58 257.758 Q 49.077 257.959 48.472 257.902 Q 47.206 257.902 46.731 257.11 Q 46.256 256.319 46.256 254.966 Q 46.256 253.613 46.861 252.39 Q 47.465 251.167 48.415 250.275 Q 49.365 249.383 50.602 248.85 Q 51.84 248.318 53.135 248.318 Q 53.653 248.318 54.027 248.404 Q 54.401 248.49 54.401 249.066 Q 54.401 249.469 54.056 249.829 Q 53.711 250.188 53.279 250.188 Q 53.25 250.188 53.135 250.145 Q 53.02 250.102 52.905 250.016 Q 52.79 249.929 52.674 249.886 Q 52.559 249.843 52.531 249.843 Q 51.61 249.584 50.746 250.102 Q 49.883 250.62 49.206 251.498 Q 48.53 252.376 48.127 253.398 Q 47.724 254.419 47.724 255.225 Q 47.724 255.542 47.853 255.729 Q 47.983 255.916 48.199 256.002 Q 48.415 256.089 48.688 256.103 Q 48.962 256.117 49.249 256.117 Q 49.825 256.117 50.415 255.945 Q 51.005 255.772 51.566 255.542 Q 52.128 255.312 52.718 255.139 Q 53.308 254.966 53.941 254.966 Q 54.229 254.966 54.574 255.124 Q 54.919 255.283 55.207 255.585 Q 55.495 255.887 55.697 256.276 Q 55.898 256.664 55.927 257.125 Q 56.099 257.528 55.826 258.19 Q 55.553 258.852 55.006 259.6 Q 54.459 260.348 53.682 261.111 Q 52.905 261.874 52.128 262.493 Q 51.35 263.111 50.602 263.5 Q 49.854 263.889 49.336 263.86 Q 48.76 263.86 48.659 263.514 Q 48.559 263.169 48.559 262.737 Z" transform="matrix(3.521473, 0, 0, 3.426911, -53.386276, -578.800354)" style="fill: rgb(255, 255, 255); paint-order: fill; stroke: rgb(255, 255, 255); stroke-width: 0px; white-space: pre;"/>
  <path d="M 58.287 262.795 Q 57.97 258.909 57.726 255.009 Q 57.481 251.109 57.193 246.907 Q 57.193 246.217 57.941 246.217 L 58.172 246.217 Q 58.258 246.217 58.373 246.447 Q 58.488 246.677 58.618 247.296 Q 58.747 247.915 58.906 249.167 Q 59.064 250.419 59.294 252.433 Q 59.524 254.448 59.812 257.47 Q 60.417 255.513 60.762 253.671 Q 61.107 251.829 61.654 250.318 Q 62.201 248.807 63.194 247.656 Q 64.187 246.504 66.058 245.957 Q 67.094 246.13 67.727 247.209 Q 68.36 248.289 68.735 249.872 Q 69.109 251.455 69.253 253.311 Q 69.397 255.168 69.425 256.866 Q 69.454 258.564 69.454 259.902 Q 69.454 261.241 69.512 261.816 Q 69.425 262.047 69.253 262.219 Q 69.08 262.392 68.864 262.464 Q 68.648 262.536 68.447 262.493 Q 68.245 262.449 68.073 262.19 Q 68.073 261.874 68.015 260.895 Q 67.958 259.917 67.871 258.607 Q 67.785 257.298 67.684 255.815 Q 67.583 254.333 67.511 253.023 Q 67.439 251.714 67.382 250.735 Q 67.324 249.757 67.296 249.44 Q 66.691 248.375 66.101 248.231 Q 65.511 248.087 64.921 248.605 Q 64.331 249.123 63.784 250.188 Q 63.237 251.253 62.748 252.592 Q 62.259 253.93 61.827 255.398 Q 61.395 256.866 61.079 258.233 Q 60.762 259.6 60.546 260.708 Q 60.33 261.816 60.273 262.421 Q 60.186 262.622 59.913 262.809 Q 59.64 262.996 59.337 263.083 Q 59.035 263.169 58.733 263.126 Q 58.431 263.083 58.287 262.795 Z" transform="matrix(3.521473, 0, 0, 3.426911, -53.386276, -578.800354)" style="fill: rgb(255, 255, 255); paint-order: fill; stroke: rgb(255, 255, 255); stroke-width: 0px; white-space: pre;"/>
  <path d="M 79.499 262.421 Q 79.355 261.672 79.254 260.622 Q 79.154 259.571 79.038 258.492 Q 78.923 257.413 78.765 256.463 Q 78.607 255.513 78.29 254.909 Q 76.822 257.902 75.7 259.614 Q 74.577 261.327 73.728 262.061 Q 72.879 262.795 72.303 262.766 Q 71.728 262.737 71.354 262.248 Q 70.979 261.759 70.821 260.996 Q 70.663 260.233 70.605 259.571 Q 70.605 258.938 70.893 257.787 Q 71.181 256.636 71.67 255.268 Q 72.16 253.901 72.836 252.491 Q 73.512 251.081 74.289 249.929 Q 75.067 248.778 75.901 248.03 Q 76.736 247.281 77.571 247.281 Q 78.808 247.08 79.398 247.814 Q 79.988 248.548 79.614 250.275 Q 79.614 252.174 79.772 253.527 Q 79.931 254.88 80.118 256.117 Q 80.305 257.355 80.463 258.708 Q 80.621 260.061 80.621 261.96 Q 80.621 262.306 80.549 262.55 Q 80.478 262.795 79.844 262.795 Q 79.758 262.795 79.628 262.651 Q 79.499 262.507 79.499 262.421 Z M 77.945 249.555 Q 77.628 249.095 77.081 249.469 Q 76.534 249.843 75.93 250.706 Q 75.326 251.57 74.692 252.779 Q 74.059 253.988 73.512 255.225 Q 72.965 256.463 72.563 257.571 Q 72.16 258.679 72.016 259.399 Q 72.016 260.435 72.332 260.564 Q 72.649 260.694 73.109 260.233 Q 73.57 259.773 74.16 258.909 Q 74.75 258.046 75.311 257.067 Q 75.872 256.089 76.376 255.168 Q 76.88 254.247 77.168 253.671 Q 77.427 253.067 77.571 252.549 Q 77.714 252.03 77.815 251.556 Q 77.916 251.081 77.93 250.591 Q 77.945 250.102 77.945 249.555 Z" transform="matrix(3.521473, 0, 0, 3.426911, -53.386276, -578.800354)" style="fill: rgb(255, 255, 255); paint-order: fill; stroke: rgb(255, 255, 255); stroke-width: 0px; white-space: pre;"/>
  <path d="M 82.204 270.739 Q 82.521 267.717 82.564 264.997 Q 82.607 262.277 82.535 259.629 Q 82.463 256.981 82.319 254.275 Q 82.176 251.57 82.147 248.548 Q 82.233 248.145 82.363 247.929 Q 82.492 247.713 83.068 247.828 Q 83.672 247.972 83.787 248.505 Q 83.902 249.037 83.845 249.699 Q 83.787 250.361 83.672 251.023 Q 83.557 251.685 83.672 252.088 Q 84.593 251.426 85.629 250.706 Q 86.666 249.987 87.788 249.426 Q 88.911 248.864 90.119 248.591 Q 91.328 248.318 92.537 248.577 Q 94.034 248.922 94.624 249.598 Q 95.214 250.275 95.084 251.153 Q 94.955 252.03 94.264 253.081 Q 93.573 254.132 92.566 255.196 Q 91.558 256.261 90.321 257.298 Q 89.083 258.334 87.903 259.212 Q 86.723 260.089 85.701 260.751 Q 84.68 261.413 84.075 261.73 Q 84.046 262.075 84.003 262.809 Q 83.96 263.543 83.917 264.464 Q 83.874 265.385 83.831 266.393 Q 83.787 267.4 83.744 268.321 Q 83.701 269.242 83.658 269.962 Q 83.615 270.681 83.615 271.026 Q 83.557 271.055 83.413 271.084 Q 83.269 271.113 83.068 271.127 Q 82.866 271.142 82.694 271.156 Q 82.521 271.17 82.463 271.142 Q 82.377 271.142 82.291 270.983 Q 82.204 270.825 82.204 270.739 Z M 83.816 254.966 Q 83.73 255.369 83.773 255.959 Q 83.816 256.549 83.888 257.197 Q 83.96 257.844 84.046 258.449 Q 84.133 259.053 84.162 259.485 Q 85.255 258.65 86.709 257.787 Q 88.162 256.923 89.529 255.916 Q 90.896 254.909 91.961 253.671 Q 93.026 252.433 93.372 250.879 Q 93.487 250.275 93.271 250.059 Q 93.055 249.843 92.537 249.757 Q 91.443 249.526 90.033 249.915 Q 88.623 250.304 87.313 251.052 Q 86.004 251.8 85.025 252.836 Q 84.046 253.872 83.816 254.966 Z" transform="matrix(3.521473, 0, 0, 3.426911, -53.386276, -578.800354)" style="fill: rgb(255, 255, 255); paint-order: fill; stroke: rgb(255, 255, 255); stroke-width: 0px; white-space: pre;"/>
  <path d="M 96.333 262.047 Q 96.736 261.615 97.024 261.456 Q 97.312 261.298 97.773 261.298 Q 98.55 261.298 98.55 262.047 Q 98.55 262.219 98.449 262.435 Q 98.348 262.651 98.19 262.852 Q 98.032 263.054 97.83 263.155 Q 97.629 263.255 97.456 263.169 Q 97.254 263.313 97.039 263.241 Q 96.823 263.169 96.65 262.996 Q 96.477 262.824 96.377 262.579 Q 96.276 262.334 96.333 262.047 Z" transform="matrix(3.521473, 0, 0, 3.426911, -53.386276, -578.800354)" style="fill: rgb(255, 255, 255); paint-order: fill; stroke: rgb(255, 255, 255); stroke-width: 0px; white-space: pre;"/>
  <path d="M 100.22 270.739 Q 100.536 267.717 100.58 264.997 Q 100.623 262.277 100.551 259.629 Q 100.479 256.981 100.335 254.275 Q 100.191 251.57 100.162 248.548 Q 100.249 248.145 100.378 247.929 Q 100.508 247.713 101.083 247.828 Q 101.688 247.972 101.803 248.505 Q 101.918 249.037 101.86 249.699 Q 101.803 250.361 101.688 251.023 Q 101.573 251.685 101.688 252.088 Q 102.609 251.426 103.645 250.706 Q 104.681 249.987 105.804 249.426 Q 106.926 248.864 108.135 248.591 Q 109.344 248.318 110.553 248.577 Q 112.049 248.922 112.639 249.598 Q 113.229 250.275 113.1 251.153 Q 112.97 252.03 112.279 253.081 Q 111.589 254.132 110.581 255.196 Q 109.574 256.261 108.336 257.298 Q 107.099 258.334 105.919 259.212 Q 104.739 260.089 103.717 260.751 Q 102.695 261.413 102.091 261.73 Q 102.062 262.075 102.019 262.809 Q 101.976 263.543 101.932 264.464 Q 101.889 265.385 101.846 266.393 Q 101.803 267.4 101.76 268.321 Q 101.716 269.242 101.673 269.962 Q 101.63 270.681 101.63 271.026 Q 101.573 271.055 101.429 271.084 Q 101.285 271.113 101.083 271.127 Q 100.882 271.142 100.709 271.156 Q 100.536 271.17 100.479 271.142 Q 100.393 271.142 100.306 270.983 Q 100.22 270.825 100.22 270.739 Z M 101.832 254.966 Q 101.745 255.369 101.788 255.959 Q 101.832 256.549 101.904 257.197 Q 101.976 257.844 102.062 258.449 Q 102.148 259.053 102.177 259.485 Q 103.271 258.65 104.724 257.787 Q 106.178 256.923 107.545 255.916 Q 108.912 254.909 109.977 253.671 Q 111.042 252.433 111.387 250.879 Q 111.502 250.275 111.286 250.059 Q 111.071 249.843 110.553 249.757 Q 109.459 249.526 108.048 249.915 Q 106.638 250.304 105.329 251.052 Q 104.019 251.8 103.04 252.836 Q 102.062 253.872 101.832 254.966 Z" transform="matrix(3.521473, 0, 0, 3.426911, -53.386276, -578.800354)" style="fill: rgb(255, 255, 255); paint-order: fill; stroke: rgb(255, 255, 255); stroke-width: 0px; white-space: pre;"/>
  <path d="M 114.325 259.226 Q 114.123 257.902 114.123 256.65 Q 114.123 255.398 114.281 254.103 Q 114.44 252.808 114.742 251.412 Q 115.044 250.016 115.447 248.404 Q 115.447 248.087 115.62 247.814 Q 115.792 247.54 116.08 247.353 Q 116.368 247.166 116.685 247.051 Q 117.001 246.936 117.289 246.936 Q 117.922 246.936 118.44 247.339 Q 118.959 247.742 119.376 248.318 Q 119.793 248.893 120.095 249.541 Q 120.398 250.188 120.599 250.649 Q 120.829 251.656 120.93 252.937 Q 121.031 254.218 120.944 255.542 Q 120.858 256.866 120.542 258.147 Q 120.225 259.427 119.649 260.492 Q 119.074 261.557 118.167 262.277 Q 117.26 262.996 116.023 263.169 Q 115.361 263.169 115.015 262.723 Q 114.67 262.277 114.512 261.629 Q 114.353 260.982 114.339 260.32 Q 114.325 259.658 114.325 259.226 Z M 115.792 259.14 Q 115.792 259.427 115.807 259.686 Q 115.821 259.945 115.864 260.19 Q 115.908 260.435 115.98 260.708 Q 116.052 260.982 116.167 261.327 L 116.339 261.327 Q 117.03 261.327 117.519 260.866 Q 118.009 260.406 118.354 259.672 Q 118.699 258.938 118.93 258.031 Q 119.16 257.125 119.289 256.247 Q 119.419 255.369 119.462 254.606 Q 119.505 253.844 119.505 253.383 L 119.505 252.808 Q 119.505 252.433 119.477 251.958 Q 119.448 251.484 119.376 250.98 Q 119.304 250.476 119.16 250.059 Q 119.016 249.642 118.786 249.383 Q 118.556 249.123 118.181 249.123 Q 117.548 248.922 117.102 249.21 Q 116.656 249.498 116.383 250.174 Q 116.109 250.85 115.965 251.829 Q 115.821 252.808 115.792 253.988 Q 115.764 255.168 115.778 256.492 Q 115.792 257.816 115.792 259.14 Z" transform="matrix(3.521473, 0, 0, 3.426911, -53.386276, -578.800354)" style="fill: rgb(255, 255, 255); paint-order: fill; stroke: rgb(255, 255, 255); stroke-width: 0px; white-space: pre;"/>
  <path d="M 122.987 250.879 Q 122.699 251.023 122.455 251.181 Q 122.21 251.34 121.98 251.469 Q 121.749 251.599 121.519 251.656 Q 121.289 251.714 121.03 251.656 Q 120.857 251.656 120.742 251.44 Q 120.627 251.225 120.555 250.951 Q 120.483 250.678 120.454 250.404 Q 120.425 250.131 120.454 249.987 L 123.217 248.404 L 123.39 241.036 Q 123.448 240.662 123.85 240.734 Q 124.253 240.806 124.685 240.921 Q 124.743 240.921 124.872 240.964 Q 125.002 241.007 125.059 241.036 Q 125.002 241.813 124.93 242.72 Q 124.858 243.626 124.8 244.533 Q 124.743 245.439 124.728 246.303 Q 124.714 247.166 124.8 247.857 L 129.118 246.648 Q 129.233 246.619 129.305 246.807 Q 129.377 246.994 129.449 247.253 Q 129.52 247.512 129.549 247.771 Q 129.578 248.03 129.578 248.03 L 124.685 250.102 Q 124.685 250.361 124.728 251.34 Q 124.771 252.318 124.829 253.657 Q 124.887 254.995 124.944 256.535 Q 125.002 258.075 125.059 259.399 Q 125.117 260.723 125.146 261.716 Q 125.174 262.708 125.174 262.968 Q 125.117 263.831 124.671 263.831 Q 124.225 263.831 123.707 263.399 Z" transform="matrix(3.521473, 0, 0, 3.426911, -53.386276, -578.800354)" style="fill: rgb(255, 255, 255); paint-order: fill; stroke: rgb(255, 255, 255); stroke-width: 0px; white-space: pre;"/>
  <path d="M 130.902 250.879 Q 130.614 251.023 130.369 251.181 Q 130.125 251.34 129.895 251.469 Q 129.664 251.599 129.434 251.656 Q 129.204 251.714 128.945 251.656 Q 128.772 251.656 128.657 251.44 Q 128.542 251.225 128.47 250.951 Q 128.398 250.678 128.369 250.404 Q 128.34 250.131 128.369 249.987 L 131.132 248.404 L 131.305 241.036 Q 131.362 240.662 131.765 240.734 Q 132.168 240.806 132.6 240.921 Q 132.658 240.921 132.787 240.964 Q 132.917 241.007 132.974 241.036 Q 132.917 241.813 132.845 242.72 Q 132.773 243.626 132.715 244.533 Q 132.658 245.439 132.643 246.303 Q 132.629 247.166 132.715 247.857 L 137.032 246.648 Q 137.148 246.619 137.22 246.807 Q 137.292 246.994 137.363 247.253 Q 137.435 247.512 137.464 247.771 Q 137.493 248.03 137.493 248.03 L 132.6 250.102 Q 132.6 250.361 132.643 251.34 Q 132.686 252.318 132.744 253.657 Q 132.802 254.995 132.859 256.535 Q 132.917 258.075 132.974 259.399 Q 133.032 260.723 133.061 261.716 Q 133.089 262.708 133.089 262.968 Q 133.032 263.831 132.586 263.831 Q 132.14 263.831 131.621 263.399 Z" transform="matrix(3.521473, 0, 0, 3.426911, -53.386276, -578.800354)" style="fill: rgb(255, 255, 255); paint-order: fill; stroke: rgb(255, 255, 255); stroke-width: 0px; white-space: pre;"/>
</svg>